<mxfile host="app.diagrams.net" modified="2023-05-14T12:23:03.541Z" agent="Mozilla/5.0 (Windows NT 10.0; Win64; x64) AppleWebKit/537.36 (KHTML, like Gecko) Chrome/113.0.0.0 Safari/537.36" etag="lmkBun68LAiG7ROGYjog" version="21.3.0" type="device">
  <diagram name="Страница 1" id="nr3CFppxRTxsmJdyLtWj">
    <mxGraphModel dx="2074" dy="1091" grid="1" gridSize="10" guides="1" tooltips="1" connect="1" arrows="1" fold="1" page="1" pageScale="1" pageWidth="827" pageHeight="1169" math="0" shadow="0">
      <root>
        <mxCell id="0" />
        <mxCell id="1" parent="0" />
        <mxCell id="Q4mVUsG7g6bhrgfFGmGc-3" style="edgeStyle=orthogonalEdgeStyle;rounded=0;orthogonalLoop=1;jettySize=auto;html=1;entryX=0.5;entryY=0;entryDx=0;entryDy=0;" edge="1" parent="1" source="Q4mVUsG7g6bhrgfFGmGc-1" target="Q4mVUsG7g6bhrgfFGmGc-2">
          <mxGeometry relative="1" as="geometry" />
        </mxCell>
        <mxCell id="Q4mVUsG7g6bhrgfFGmGc-1" value="Начало&lt;br&gt;addTrain" style="ellipse;whiteSpace=wrap;html=1;" vertex="1" parent="1">
          <mxGeometry x="354" y="10" width="120" height="80" as="geometry" />
        </mxCell>
        <mxCell id="Q4mVUsG7g6bhrgfFGmGc-5" style="edgeStyle=orthogonalEdgeStyle;rounded=0;orthogonalLoop=1;jettySize=auto;html=1;entryX=0.5;entryY=0;entryDx=0;entryDy=0;" edge="1" parent="1" source="Q4mVUsG7g6bhrgfFGmGc-2" target="Q4mVUsG7g6bhrgfFGmGc-4">
          <mxGeometry relative="1" as="geometry" />
        </mxCell>
        <mxCell id="Q4mVUsG7g6bhrgfFGmGc-2" value="&lt;div style=&quot;font-size: 14px; line-height: 19px;&quot;&gt;&lt;span style=&quot;background-color: rgb(255, 255, 255);&quot;&gt;newNode = (struct Node*)malloc(sizeof(struct Node))&lt;/span&gt;&lt;/div&gt;" style="rounded=0;whiteSpace=wrap;html=1;" vertex="1" parent="1">
          <mxGeometry x="354" y="120" width="120" height="60" as="geometry" />
        </mxCell>
        <mxCell id="Q4mVUsG7g6bhrgfFGmGc-7" style="edgeStyle=orthogonalEdgeStyle;rounded=0;orthogonalLoop=1;jettySize=auto;html=1;entryX=0.5;entryY=0;entryDx=0;entryDy=0;" edge="1" parent="1" source="Q4mVUsG7g6bhrgfFGmGc-4" target="Q4mVUsG7g6bhrgfFGmGc-6">
          <mxGeometry relative="1" as="geometry" />
        </mxCell>
        <mxCell id="Q4mVUsG7g6bhrgfFGmGc-4" value="&lt;div style=&quot;font-size: 14px; line-height: 19px;&quot;&gt;&lt;span style=&quot;background-color: rgb(255, 255, 255);&quot;&gt;newNode-&amp;gt;train = setTrain()&lt;/span&gt;&lt;/div&gt;" style="rounded=0;whiteSpace=wrap;html=1;" vertex="1" parent="1">
          <mxGeometry x="354" y="210" width="120" height="60" as="geometry" />
        </mxCell>
        <mxCell id="Q4mVUsG7g6bhrgfFGmGc-9" style="edgeStyle=orthogonalEdgeStyle;rounded=0;orthogonalLoop=1;jettySize=auto;html=1;entryX=0.5;entryY=0;entryDx=0;entryDy=0;" edge="1" parent="1" source="Q4mVUsG7g6bhrgfFGmGc-6" target="Q4mVUsG7g6bhrgfFGmGc-8">
          <mxGeometry relative="1" as="geometry" />
        </mxCell>
        <mxCell id="Q4mVUsG7g6bhrgfFGmGc-6" value="&lt;div style=&quot;font-size: 14px; line-height: 19px;&quot;&gt;&lt;div style=&quot;&quot;&gt;&lt;span style=&quot;background-color: rgb(255, 255, 255);&quot;&gt;newNode-&amp;gt;left=NULL&amp;nbsp;&lt;/span&gt;&lt;/div&gt;&lt;div style=&quot;&quot;&gt;&lt;span style=&quot;background-color: rgb(255, 255, 255);&quot;&gt;newNode-&amp;gt;right=NULL&lt;/span&gt;&lt;/div&gt;&lt;/div&gt;" style="rounded=0;whiteSpace=wrap;html=1;" vertex="1" parent="1">
          <mxGeometry x="341" y="300" width="146" height="60" as="geometry" />
        </mxCell>
        <mxCell id="Q4mVUsG7g6bhrgfFGmGc-11" style="edgeStyle=orthogonalEdgeStyle;rounded=0;orthogonalLoop=1;jettySize=auto;html=1;" edge="1" parent="1" source="Q4mVUsG7g6bhrgfFGmGc-8" target="Q4mVUsG7g6bhrgfFGmGc-10">
          <mxGeometry relative="1" as="geometry" />
        </mxCell>
        <mxCell id="Q4mVUsG7g6bhrgfFGmGc-8" value="&lt;div style=&quot;font-size: 14px; line-height: 19px;&quot;&gt;&lt;span style=&quot;background-color: rgb(255, 255, 255);&quot;&gt;node = addNode(node, newNode)&lt;/span&gt;&lt;/div&gt;" style="rounded=0;whiteSpace=wrap;html=1;" vertex="1" parent="1">
          <mxGeometry x="354" y="390" width="120" height="60" as="geometry" />
        </mxCell>
        <mxCell id="Q4mVUsG7g6bhrgfFGmGc-10" value="Конец" style="ellipse;whiteSpace=wrap;html=1;" vertex="1" parent="1">
          <mxGeometry x="354" y="470" width="120" height="80" as="geometry" />
        </mxCell>
      </root>
    </mxGraphModel>
  </diagram>
</mxfile>
